<?xml version="1.0" encoding="UTF-8" standalone="no"?>
<svg
   xmlns:dc="http://purl.org/dc/elements/1.1/"
   xmlns:cc="http://creativecommons.org/ns#"
   xmlns:rdf="http://www.w3.org/1999/02/22-rdf-syntax-ns#"
   xmlns:svg="http://www.w3.org/2000/svg"
   xmlns="http://www.w3.org/2000/svg"
   xmlns:sodipodi="http://sodipodi.sourceforge.net/DTD/sodipodi-0.dtd"
   xmlns:inkscape="http://www.inkscape.org/namespaces/inkscape"
   class="center-block"
   id="svg10"
   height="200"
   viewBox="0 0 200 400"
   version="1.1"
   sodipodi:docname="capacity.svg"
   width="200"
   inkscape:version="0.92.2 (5c3e80d, 2017-08-06)"
   inkscape:export-filename="/home/flamenkito/temp/client/src/assets/images/capacity.arrow.png"
   inkscape:export-xdpi="96"
   inkscape:export-ydpi="96"><metadata
   id="metadata23">
  <rdf:RDF>
    <cc:Work
       rdf:about="">
      <dc:format>image/svg+xml</dc:format>
      <dc:type
         rdf:resource="http://purl.org/dc/dcmitype/StillImage" />
      <dc:title />
    </cc:Work>
  </rdf:RDF>
</metadata>
<sodipodi:namedview
   pagecolor="#ffffff"
   bordercolor="#666666"
   borderopacity="1"
   objecttolerance="10"
   gridtolerance="10"
   guidetolerance="10"
   inkscape:pageopacity="0"
   inkscape:pageshadow="2"
   inkscape:window-width="1375"
   inkscape:window-height="876"
   id="namedview21"
   showgrid="false"
   inkscape:zoom="1.6963351"
   inkscape:cx="134.01045"
   inkscape:cy="133.43166"
   inkscape:window-x="65"
   inkscape:window-y="24"
   inkscape:window-maximized="1"
   inkscape:current-layer="layer2"
   showguides="true"
   inkscape:guide-bbox="true">
  <sodipodi:guide
     position="89.621419,200.91872"
     orientation="0,1"
     id="guide858"
     inkscape:locked="false" />
  <sodipodi:guide
     position="100.808,350.73399"
     orientation="1,0"
     inkscape:locked="false"
     id="guide860" />
</sodipodi:namedview>
<defs
   id="defs14">
  <filter
     id="filter5143"
     x="-0.041999999"
     width="1.085"
     y="-0.017000001"
     height="1.033"
     style="color-interpolation-filters:sRGB">
    <feGaussianBlur
       stdDeviation="1.06"
       id="feGaussianBlur5145" />
  </filter>
  <filter
     id="filter5147"
     x="-0.024"
     width="1.048"
     y="-0.024"
     height="1.048"
     style="color-interpolation-filters:sRGB">
    <feGaussianBlur
       stdDeviation="3.65"
       id="feGaussianBlur5149" />
  </filter>
  <filter
     style="color-interpolation-filters:sRGB"
     id="filter5147-3"
     x="-0.024"
     width="1.048"
     y="-0.024"
     height="1.048">
    <feGaussianBlur
       stdDeviation="3.65"
       id="feGaussianBlur5149-6" />
  </filter>
  <filter
     id="filter5143-3"
     x="-0.041999999"
     width="1.085"
     y="-0.017000001"
     height="1.033"
     style="color-interpolation-filters:sRGB">
    <feGaussianBlur
       stdDeviation="1.06"
       id="feGaussianBlur5145-6" />
  </filter>
</defs>
<g
   id="g16" />

#pointerElement id=&quot;pointer&quot; svg:transform-center-x=&quot;-0.98275034&quot; svg:transform-center-y=&quot;-47.13874&quot; transform=&quot;translate(-95.726224,-2.759992)&quot;
    inkscape:label=&quot;#pointer&quot;&gt;
    <g
   inkscape:groupmode="layer"
   id="layer2"
   inkscape:label="base"
   style="display:inline">
  <g
     id="g941">
    <g
       transform="translate(-89.644,6.766013)"
       id="g4066">
      <path
         style="fill:#85bb54;stroke-width:1.04499996"
         inkscape:connector-curvature="0"
         d="M 82.813,300 C 54.277,271.373 38.157,232.633 38,192.304 c 0,-20.302 4.068,-40.475 12.038,-59.294 3.785,-8.888 8.397,-17.373 13.76,-25.35 l 60.026,40.005 c -2.847,4.23 -5.29,8.718 -7.254,13.357 -4.165,9.74 -6.332,20.576 -6.332,31.282 -0.157,20.6 8.91,42.392 23.655,56.848 z"
         id="path4008" />
      <path
         style="fill:#ff6600;stroke-width:1.04499996"
         inkscape:connector-curvature="0"
         d="m 249.57,51.57 c 0.332,0.136 0.664,0.274 0.996,0.414 18.188,7.673 34.695,18.765 48.62,32.625 13.924,13.862 25.067,30.294 32.776,48.4 7.97,18.82 12.038,38.992 12.038,59.294 -0.04,10.083 -1.076,20.065 -3.056,29.816 l -70.738,-14.275 c 1.058,-5.166 1.595,-10.39 1.556,-15.54 0,-10.707 -2.167,-21.543 -6.332,-31.283 -4,-9.45 -9.992,-18.27 -17.323,-25.565 -7.327,-7.298 -16.187,-13.263 -25.682,-17.244 l -0.516,-0.217 z"
         id="path4010" />
      <path
         style="fill:#e7c744;stroke-width:1.04499996"
         inkscape:connector-curvature="0"
         d="M 63.797,107.66 C 69.357,99.39 75.725,91.667 82.813,84.61 96.739,70.75 113.246,59.657 131.433,51.984 150.34,44.05 170.606,40 191,40 c 20.037,0 39.95,3.91 58.57,11.57 l -27.66,66.426 c -9.652,-4.004 -20.344,-6.086 -30.91,-6.086 -10.755,0 -21.64,2.157 -31.425,6.303 -9.495,3.98 -18.355,9.946 -25.682,17.244 -3.732,3.713 -7.117,7.822 -10.07,12.208 z"
         id="path4012" />
      <path
         style="fill:#d40000;stroke-width:0.68400002"
         inkscape:connector-curvature="0"
         id="path4060"
         d="m 340.944,222.12 c -5.937,29.25 -20.355,56.41 -41.757,77.88 l -51.08,-50.848 c 11.06,-10.842 18.924,-25.81 22.1,-41.307 z" />
    </g>
    <path
       style="fill:#464954;stroke-width:1.42400002"
       inkscape:connector-curvature="0"
       id="circle4969"
       d="m 101.616,16.766013 a 182.5,182.5 0 0 0 -182.5,182.499997 182.5,182.5 0 0 0 182.5,182.5 182.5,182.5 0 0 0 182.5,-182.5 182.5,182.5 0 0 0 -182.5,-182.499997 z m 0,32.5 a 150,150 0 0 1 150,149.999997 150,150 0 0 1 -150,150 150,150 0 0 1 -150,-150 150,150 0 0 1 150,-149.999997 z" />
    <path
       style="fill:#464954;fill-opacity:0.50199998;stroke-width:1.42400002;filter:url(#filter5147-3)"
       inkscape:connector-curvature="0"
       d="m 101.616,33.006013 a 182.5,182.5 0 0 0 -182.5,182.499997 182.5,182.5 0 0 0 182.5,182.5 182.5,182.5 0 0 0 182.5,-182.5 182.5,182.5 0 0 0 -182.5,-182.499997 z m 0,32.5 a 150,150 0 0 1 150,149.999997 150,150 0 0 1 -150,150 150,150 0 0 1 -150,-150 150,150 0 0 1 150,-149.999997 z"
       id="path5039" />
  </g>
</g>
<g
   inkscape:groupmode="layer"
   id="layer1"
   inkscape:label="arrow"
   style="display:inline">
  <g
     id="g851"
     transform="translate(-183.57218,3.08128)"
     inkscape:export-xdpi="96"
     inkscape:export-ydpi="96"
     inkscape:transform-center-x="-1.104178"
     inkscape:transform-center-y="-47.279027">
    <path
       style="fill:#464954;fill-opacity:1;stroke:none;stroke-width:1.28983617;stroke-miterlimit:4;stroke-dasharray:none;stroke-opacity:1"
       d="m 285.18818,73.913651 c 0,0 -30,107.517809 -30,124.086349 0,16.56854 13.43146,30 30,30 16.56854,0 30,-13.43146 30,-30 0,-16.56854 -30,-124.086349 -30,-124.086349 z m 0,114.086349 c 5.52285,0 10,4.47715 10,10 0,5.52285 -4.47715,10 -10,10 -5.52285,0 -10,-4.47715 -10,-10 0,-5.52285 4.47715,-10 10,-10 z"
       id="circle5093"
       svg:connector-curvature="0"
       inkscape:connector-curvature="0" />
    <path
       inkscape:transform-center-y="-46.494993"
       inkscape:transform-center-x="-1.7384763"
       inkscape:connector-curvature="0"
       svg:connector-curvature="0"
       id="path5117"
       d="m 264.2675,75.848225 c 0,0 -9.77512,111.195905 -6.73685,127.483475 3.03827,16.28759 18.70497,27.02828 34.99256,23.99001 16.28759,-3.03827 27.02828,-18.70497 23.99002,-34.99256 C 313.47496,176.04157 264.2675,75.848225 264.2675,75.848225 Z M 285.18818,188 c 5.4292,-1.01276 10.65143,2.56748 11.66419,7.99668 1.01274,5.42918 -2.56747,10.65142 -7.99668,11.66417 -5.4292,1.01277 -10.65143,-2.56746 -11.66419,-7.99666 -1.01275,-5.4292 2.56749,-10.65144 7.99668,-11.66419 z"
       style="fill:#454954;fill-opacity:0.50196078;stroke:none;stroke-width:1.28983617;stroke-miterlimit:4;stroke-dasharray:none;stroke-opacity:1;filter:url(#filter5143-3)" />
  </g>
</g>
</svg>
